<svg xmlns="http://www.w3.org/2000/svg" viewBox="0 0 48 48" width="48px" height="48px"><path fill="#B0BEC5" d="M7.048 22.242L34.523 6.121 35.478 7.879 8 24z"/><path fill="#78909C" d="M35 5A2 2 0 1 0 35 9A2 2 0 1 0 35 5Z"/><path fill="#4CAF50" d="M6,24v16c0,1.657,1.344,3,3,3h13h17c1.656,0,3-1.343,3-3V24c0-1.657-1.344-3-3-3H22H9C7.344,21,6,22.343,6,24z"/><path fill="#263238" d="M26,32c0-3.314,2.691-6,6-6s6,2.686,6,6s-2.691,6-6,6S26,35.314,26,32z"/><path fill="#2E7D32" d="M32,24c-4.42,0-8,3.583-8,8s3.58,8,8,8s8-3.583,8-8S36.42,24,32,24z M32,38c-3.309,0-6-2.686-6-6s2.691-6,6-6s6,2.686,6,6S35.309,38,32,38z"/><path fill="#2E7D32" d="M26 35H38V37H26zM25 31H39V33H25zM26 27H38V29H26zM18 36.5c0 2.484-2.015 4.5-4.5 4.5l0 0C11.015 41 9 38.984 9 36.5v-9c0-2.484 2.015-4.5 4.5-4.5l0 0c2.485 0 4.5 2.016 4.5 4.5V36.5z"/><g><path fill="#CFD8DC" d="M13.5 25A2.5 2.5 0 1 0 13.5 30 2.5 2.5 0 1 0 13.5 25zM13.5 34A2.5 2.5 0 1 0 13.5 39 2.5 2.5 0 1 0 13.5 34z"/></g></svg>