<svg xmlns="http://www.w3.org/2000/svg" viewBox="0 0 48 48" width="48px" height="48px"><path fill="#AF8023" d="M24.086 21.586H26.086V36.315H24.086z" transform="rotate(-45.02 25.084 28.949)"/><path fill="#AF8023" d="M22.086 23.586H24.086V38.315H22.086z" transform="rotate(-45.02 23.084 30.949)"/><path fill="#AF8023" d="M26.086 19.585H28.086V34.314H26.086z" transform="rotate(-45.02 27.084 26.948)"/><g><path fill="#FFC107" d="M35.363 18.157c-2.797-2.797-5.848-1.223-7.07 0L14.164 32.286c-1.224 1.224-2.796 4.274 0 7.071 2.797 2.797 5.849 1.223 7.071 0l3.946-3.946-1.414-1.414-3.942 3.942c-.359.351-2.25 2-4.247.004-1.996-1.996-.347-3.888 0-4.243l14.125-14.125c.359-.351 2.25-2 4.246-.004 1.994 1.993.352 3.884-.002 4.245l-3.815 3.816 1.414 1.414 3.817-3.818C36.586 24.005 38.16 20.954 35.363 18.157zM9.121 41.706c-.392.392-1.023.392-1.414 0l-1.414-1.414c-.391-.391-.391-1.024 0-1.415s1.022-.392 1.414 0l1.414 1.414C9.513 40.683 9.512 41.315 9.121 41.706z"/><path fill="#FFC107" d="M24.262 33.541l-1.97 1.97c-.38.377-1.036.379-1.414-.001-.189-.188-.293-.438-.293-.706 0-.267.104-.518.293-.707l1.97-1.97-1.414-1.414-1.97 1.97c-.566.566-.879 1.32-.879 2.121 0 .802.313 1.556.878 2.121.566.566 1.32.879 2.122.879.801 0 1.555-.313 2.121-.879l1.97-1.97L24.262 33.541zM28.24 26.69l1.886-1.886c.189-.188.44-.293.707-.293.268 0 .518.104.707.294.189.188.293.438.293.706 0 .267-.104.518-.293.707l-1.886 1.887 1.414 1.414 1.886-1.887c.566-.566.879-1.32.879-2.121 0-.802-.313-1.556-.878-2.121-1.132-1.132-3.109-1.134-4.243 0l-1.886 1.886L28.24 26.69z"/><path fill="#AF8023" d="M21.293 22.329L22.707 20.916"/><path fill="#FFC107" d="M18.818,24.099c0.194,0.194,0.193,0.511-0.002,0.706l-2.121,2.121c-0.195,0.195-0.51,0.195-0.705,0.001l0,0c-0.195-0.195-0.197-0.512-0.002-0.708l2.121-2.121C18.305,23.902,18.623,23.902,18.818,24.099L18.818,24.099z"/><path fill="#FFC107" d="M20.939,21.977c0.195,0.195,0.194,0.512-0.001,0.707l-2.121,2.121c-0.195,0.195-0.511,0.194-0.706,0.001l0,0c-0.195-0.195-0.197-0.513-0.002-0.708l2.121-2.121C20.427,21.781,20.744,21.781,20.939,21.977L20.939,21.977z"/><path fill="#FFC107" d="M23.061 19.855c.195.195.194.512-.001.707l-2.121 2.121c-.195.195-.511.194-.706 0l0 0c-.195-.195-.197-.512-.002-.707l2.122-2.121C22.548 19.66 22.865 19.66 23.061 19.855L23.061 19.855zM41.586 11.936c0 0-2.121-2.121-14.143 9.9C15.423 33.856 8.473 40.806 8.473 40.806l-1.414-1.414c0 0 6.949-6.949 18.971-18.971C38.051 8.4 35.929 6.279 35.929 6.279L41.586 11.936z"/><path fill="#FFC107" d="M38.611 3.754H39.611999999999995V13.753H38.611z" transform="rotate(-44.96 39.112 8.754)"/></g><g><path fill="#D3A020" d="M31.928 14.596c-.176 0-.337.024-.505.037 0 0-1.507 1.829-3.267 3.612 0 0 1.547-1.739 3.771-1.649.321.013.651.041.986.12.635-.545 1.229-1.038 1.777-1.472C33.815 14.821 32.887 14.596 31.928 14.596L31.928 14.596zM14.962 37.145c-.944-1.663.29-3.106.605-3.434-1.102 1.102-2.071 2.072-2.903 2.903.105.645.374 1.312.854 1.976L14.962 37.145z"/></g></svg>