<svg xmlns="http://www.w3.org/2000/svg" viewBox="0 0 48 48" width="48px" height="48px"><path fill="#FFA726" d="M39,8c0-1-1-3-3-3s-3,2-3,3c0,0.572,0,12,0,12c0,0.553-0.447,1-1,1H22c-0.553,0-1-0.447-1-1V6.989C21,5.883,20,4,18,4s-3,1.989-3,2.989s0,24.003,0,24.003l-4.278-4.021c-1.39-1.392-3.448-1.518-4.838,0.182c-1.235,1.392-0.928,3.555,0.31,4.789l5.692,5.692C14.819,40.57,18.683,42,22.853,42h6.879c5.1,0,9.269-4.056,9.269-9.154C39,32.846,39,9,39,8z"/><path fill="#FFA726" d="M21 28.086C21 29.689 22.35 31 24 31c1.651 0 3-1.311 3-2.914v-7.174C27 19.31 25.651 18 24 18c-1.65 0-3 1.31-3 2.912V28.086zM27 28.086C27 29.689 28.35 31 30 31c1.651 0 3-1.311 3-2.914v-7.174C33 19.31 31.651 18 30 18c-1.65 0-3 1.31-3 2.912V28.086z"/><g><path fill="#FFCDD2" d="M16 7.1c.012-1.172.914-2.112 2.022-2.1 1.103.013 1.99.975 1.977 2.143C19.987 8.315 15.988 8.271 16 7.1M34.001 8.1c.012-1.172.914-2.112 2.022-2.1 1.103.013 1.99.975 1.977 2.143C37.988 9.315 33.989 9.271 34.001 8.1M6.994 31.088c-.926-.829-1.003-2.252-.174-3.18.832-.925 2.256-1 3.181-.17C10.927 28.57 7.92 31.921 6.994 31.088"/></g></svg>