<svg xmlns="http://www.w3.org/2000/svg" viewBox="0 0 48 48" width="48px" height="48px" baseProfile="basic"><path fill="#eb0000" d="M39,21.963l4.581,7.42c1.184,2.03-0.28,4.58-2.631,4.58h-7.075v-12.5L39,21.963z"/><path fill="#ddbaff" d="M24,42L24,42c-7.351,0-13.544-5.494-14.42-12.792l-0.455-4.12C9.883,15.244,14.863,8,24,8l0,0 c9.137,0,15.125,7.963,15.132,17.056l-0.713,4.151C37.544,36.506,31.351,42,24,42z"/><path fill="#ddbaff" d="M38.316,30.368H9.684C8.202,30.368,7,29.167,7,27.684S8.202,25,9.684,25h28.632 C39.798,25,41,26.202,41,27.684S39.798,30.368,38.316,30.368z"/><path fill="#2100c4" d="M36.259,15.08c-0.738-0.999-1.599-1.908-2.557-2.699c-2.622-2.17-5.993-3.486-9.702-3.486 s-7.079,1.316-9.703,3.485c-0.496,0.41-1.979,0.856-2.422,1.333C9.088,16.686,9,20.713,9,25.088c1.748-0.753,3.158-1.969,4.161-3.5 c0.723-1.104,1.314-3.497,1.589-4.875h18.578c0.255,1.275,0.665,3.581,1.342,4.625c1.07,1.649,2.613,2.956,4.455,3.75 C39.125,20.838,38.333,17.887,36.259,15.08z"/><path fill="#f55376" d="M29.399,4.963H18.601C13.299,4.963,9,9.262,9,14.564v7.399h30v-7.399 C39,9.262,34.701,4.963,29.399,4.963z M23.5,19.963h-7c-0.828,0-1.5-0.672-1.5-1.5s0.672-1.5,1.5-1.5h7c0.828,0,1.5,0.672,1.5,1.5 S24.328,19.963,23.5,19.963z"/><path fill="#2100c4" d="M24,33.963c-3.775,0-6.94,2.467-7.776,5.769c0.88,0.559,1.823,1.024,2.815,1.385 c0.2-2.318,2.336-4.155,4.961-4.155s4.761,1.837,4.961,4.155c0.992-0.361,1.935-0.826,2.815-1.386 C30.94,36.43,27.775,33.963,24,33.963z"/><path fill="#2100c4" d="M24,38.963c-1.561,0-2.829,1.197-2.972,2.721C21.99,41.885,22.982,42,24,42s2.01-0.115,2.972-0.316 C26.829,40.16,25.561,38.963,24,38.963z"/><path fill="#2100c4" d="M13,24.963v2.235c0,2.628,2.159,4.765,4.813,4.765c2.388,0,4.359-1.738,4.733-4h2.91 c0.374,2.262,2.344,4,4.733,4c2.654,0,4.813-2.138,4.813-4.765v-2.235H13z"/></svg>