<svg xmlns="http://www.w3.org/2000/svg" viewBox="0 0 64 64" width="64px" height="64px" baseProfile="basic"><ellipse cx="32" cy="61" opacity=".3" rx="15" ry="3"/><path fill="#9c34c2" d="M28.5,56c-6.236,0-8.5-5.083-8.5-8.5c0-1.381,1.119-2.5,2.5-2.5c1.374,0,2.489,1.108,2.5,2.479 C25.022,48.541,25.409,51,28.5,51c3.095,0,3.479-2.464,3.5-3.524v-3.128c-3.209-0.245-6.199-1.146-8.563-2.598 C19.931,39.595,18,36.311,18,32.5c0-8.445,7.524-10.896,13.571-12.865c0.145-0.047,0.287-0.094,0.429-0.14V15.5 C32,6.822,36.078,5,39.5,5c2.613,0,6.5,1.998,6.5,7.5c0,6.01-4.357,8.745-9,10.545v5.021c2.591-0.145,5.202,0.181,7.128,1.516 C45.438,30.49,47,32.254,47,35.5c0,4.492-3.978,7.825-10,8.693V47.5C37,50.917,34.736,56,28.5,56z M25,47.5h0.01H25z M32,24.758 c-5.609,1.867-9,3.439-9,7.742c0,2.065,1.027,3.744,3.055,4.989c1.581,0.971,3.684,1.614,5.945,1.838v-5.316 c-0.954,0.256-1.853,0.542-2.624,0.83c-1.295,0.485-2.733-0.173-3.217-1.466s0.171-2.732,1.463-3.216 c0.667-0.25,2.312-0.833,4.378-1.324V24.758z M37,33.099v6.007c2.773-0.552,5-1.815,5-3.605c0-1.309-0.504-1.658-0.719-1.808 C40.406,33.084,38.814,32.951,37,33.099z M39.437,9.999C38.688,10,37,10,37,15.5v2.108c2.701-1.283,4-2.706,4-5.108 C41,10.9,40.474,10.059,39.437,9.999z"/><path d="M47,35.5c0-2.187-0.712-3.689-1.576-4.722C43.44,31.441,42,33.293,42,35.5 c0,0.203-0.036,0.398-0.092,0.587c-0.009,0.03-0.015,0.061-0.025,0.091c-0.059,0.172-0.142,0.337-0.242,0.496 c-0.026,0.042-0.053,0.084-0.082,0.125c-0.106,0.15-0.228,0.294-0.367,0.432c-0.04,0.04-0.083,0.078-0.125,0.116 c-0.154,0.14-0.319,0.274-0.503,0.401c-0.027,0.018-0.056,0.036-0.084,0.054c-1.096,0.726-2.647,1.219-4.194,1.443 C33.826,39.599,32,41.707,32,44.193v0.155v3.128V47.5c0,0.204-0.024,0.693-0.192,1.242c-0.004,0.012-0.007,0.023-0.011,0.035 c-0.02,0.063-0.042,0.126-0.066,0.19c-0.019,0.052-0.039,0.103-0.061,0.155c-0.013,0.031-0.028,0.062-0.042,0.094 c-0.037,0.081-0.077,0.161-0.121,0.24c-0.005,0.009-0.011,0.019-0.016,0.028c-0.23,0.403-0.562,0.776-1.038,1.052 c0,0-0.001,0-0.001,0c-0.115,0.066-0.238,0.127-0.37,0.181c-0.011,0.004-0.02,0.009-0.031,0.014 c-0.122,0.048-0.252,0.09-0.39,0.126c-0.024,0.006-0.045,0.014-0.069,0.02c-0.13,0.032-0.271,0.055-0.416,0.075 c-0.035,0.005-0.066,0.013-0.102,0.017C28.894,50.988,28.704,51,28.5,51c-2.298,0-4.213,1.559-4.799,3.67 C24.937,55.482,26.515,56,28.5,56c6.236,0,8.5-5.083,8.5-8.5v-3.307C43.022,43.325,47,39.992,47,35.5z" opacity=".15"/><path fill="#fff" d="M23,32.5c0-1.853,0.553-3.191,1.845-4.329c0.016-0.015,0.035-0.029,0.052-0.043 c0.128-0.111,0.256-0.221,0.398-0.328c1.551-1.206,3.835-2.086,6.705-3.041v0.004c0.361-0.122,0.727-0.245,1.114-0.37l0.442-0.145 C35.61,23.574,37,21.657,37,19.495v-1.887V15.5c0-0.344,0.007-0.666,0.019-0.968C37.207,10,38.735,10,39.437,9.999 c0.003,0,0.006,0.001,0.009,0.001c0.018,0,0.037,0,0.055,0c2.039,0,3.786-1.224,4.564-2.974C42.719,5.599,40.923,5,39.5,5 C36.078,5,32,6.822,32,15.5v3.995c-0.142,0.046-0.284,0.093-0.429,0.14C25.524,21.604,18,24.055,18,32.5 c0,1.745,0.424,3.372,1.2,4.839C21.379,36.799,23,34.846,23,32.5z" opacity=".3"/><line x1="34.5" x2="34.5" y1="13.5" y2="16.5" fill="none" stroke="#fff" stroke-linecap="round" stroke-miterlimit="10" stroke-width="3"/></svg>