<svg xmlns="http://www.w3.org/2000/svg" viewBox="0 0 64 64" width="64px" height="64px" baseProfile="basic"><path fill="#9c34c2" d="M47.909,55c1.782,0,3.187-1.55,2.989-3.321C49.564,39.742,41.054,33,32,33 c-8.995,0-17.452,7.485-18.871,18.663C12.904,53.438,14.325,55,16.114,55H47.909z"/><path fill="orange" d="M32.067,39L32.067,39c-1.669,0-3.177-0.996-3.833-2.531L26.753,33h10.466l-1.255,3.31 C35.35,37.929,33.799,39,32.067,39z"/><ellipse cx="32" cy="22.619" fill="#ffce29" rx="12" ry="12.381"/><path fill="#9c34c2" d="M23.78,17.069c0,0,4.387,0.984,8.226,0.984s8.226-0.984,8.226-0.984v0.613 c0,2.499,1.43,4.538,3.697,4.537l0.033-0.006c0.003-3.989-0.889-8.284-3.985-11.086c-4.591-4.153-11.352-4.153-15.942,0 c-3.097,2.801-3.999,8.063-3.999,11.086c0.013,0,0.002,0,0.016,0c2.266,0,3.728-2.025,3.728-4.523V17.069z"/><ellipse cx="32" cy="61" opacity=".3" rx="19" ry="3"/><path fill="#fff" d="M36.701,9.013c-4.167-1.829-9.078-1.132-12.666,2.114 c-1.223,1.106-2.087,2.601-2.705,4.184c0.82,0.53,1.758,0.816,2.707,0.816c1.195,0,2.396-0.426,3.352-1.292 c1.287-1.164,2.845-1.793,4.505-1.822C34.282,12.973,36.244,11.261,36.701,9.013z" opacity=".3"/><path fill="none" stroke="#fff" stroke-linecap="round" stroke-linejoin="round" stroke-miterlimit="10" stroke-width="3" d="M26.383,13.722c0.97-0.878,2.101-1.513,3.305-1.871"/><path fill="#37d0ee" d="M20,25h-3c-0.552,0-1-0.448-1-1v-6c0-0.552,0.448-1,1-1h3c0.552,0,1,0.448,1,1v6 C21,24.552,20.552,25,20,25z"/><path fill="#37d0ee" d="M47,25h-3c-0.552,0-1-0.448-1-1v-6c0-0.552,0.448-1,1-1h3c0.552,0,1,0.448,1,1v6 C48,24.552,47.552,25,47,25z"/><path fill="none" stroke="#37d0ee" stroke-miterlimit="10" stroke-width="3" d="M19.5,20.5V19c0-6.904,5.596-12.5,12.5-12.5h0 c6.904,0,12.5,5.596,12.5,12.5v1.5"/><path d="M40.676,35.238c-1.497,2.02-1.136,4.871,0.647,6.657c1.799,1.801,3.121,4.115,3.908,6.81 C45.42,49.35,44.942,50,44.271,50H41c-2.762,0-4.997,2.239-4.997,5h11.906c1.782,0,3.187-1.55,2.989-3.321 C50.012,43.749,45.952,38.129,40.676,35.238z" opacity=".15"/></svg>