<svg xmlns="http://www.w3.org/2000/svg" viewBox="0 0 100 100" width="60px" height="60px"><path fill="#1d1d1b" d="M17.719,89.91c1.595,1.618,3.74,2.51,6.041,2.51 c1.68,0,3.305-0.487,4.711-1.418l1.719-1.146c0.511,0.085,1.029,0.128,1.551,0.128c2.157,0,4.277-0.747,5.968-2.104l34.562-29.211 c2.135-0.363,6.042-1.176,9.327-2.666c0.146,0.007,0.292,0.01,0.439,0.01c2.671,0,5.178-1.036,7.06-2.918 c1.926-1.926,2.957-4.564,2.912-7.248C93.97,42.211,95,38.152,95,34C95,20.215,83.785,9,70,9c-4.145,0-8.192,1.022-11.814,2.97 c-0.079-0.002-0.159-0.003-0.238-0.003c-2.635,0-5.209,1.063-7.063,2.918c-2.005,2.005-3.036,4.763-2.902,7.547 c-1.289,2.866-2.178,6.435-2.658,9.305l-29.25,34.604c-1.69,2.13-2.348,4.863-1.926,7.465l-1.158,1.734 c-2.225,3.362-1.772,7.869,1.074,10.714L17.719,89.91z" opacity=".35"/><path fill="#f2f2f2" d="M15.719,87.91c1.595,1.618,3.74,2.51,6.041,2.51c1.68,0,3.305-0.487,4.711-1.418l1.719-1.146 c0.511,0.085,1.029,0.128,1.551,0.128c2.157,0,4.277-0.747,5.968-2.104l34.562-29.211c2.135-0.363,6.042-1.176,9.327-2.666 c0.146,0.007,0.292,0.01,0.439,0.01c2.671,0,5.178-1.036,7.06-2.918c1.926-1.926,2.957-4.564,2.912-7.248 C91.97,40.211,93,36.152,93,32C93,18.215,81.785,7,68,7c-4.145,0-8.192,1.022-11.814,2.97c-0.079-0.002-0.159-0.003-0.238-0.003 c-2.635,0-5.209,1.063-7.063,2.918c-2.005,2.005-3.036,4.763-2.902,7.547c-1.289,2.866-2.178,6.435-2.658,9.305l-29.25,34.604 c-1.69,2.13-2.348,4.863-1.926,7.465l-1.158,1.734c-2.225,3.362-1.772,7.869,1.074,10.714L15.719,87.91z"/><circle cx="68" cy="32" r="19" fill="#9ba7c5"/><circle cx="68" cy="32" r="19" fill="#9ba7c5"/><path fill="#40396e" d="M80.024,46.025c-0.534,0-1.036-0.208-1.414-0.586 L54.543,21.372c-0.378-0.378-0.586-0.88-0.586-1.415s0.208-1.036,0.586-1.414s0.88-0.586,1.414-0.586s1.036,0.208,1.413,0.585 L81.439,42.61c0.378,0.378,0.586,0.88,0.586,1.415c0,0.534-0.208,1.036-0.586,1.414C81.062,45.817,80.56,46.025,80.024,46.025z" opacity=".35"/><path fill="#9aa2e6" d="M50,31.83L19.161,68.384c-0.947,1.194-0.848,2.908,0.229,3.986l0.277,0.277l-3.258,4.489 c-0.529,0.793-0.424,1.849,0.25,2.524l3.681,3.681c0.674,0.674,1.73,0.779,2.524,0.25l4.489-3.258l0.277,0.277 c1.078,1.077,2.792,1.176,3.986,0.229L68.17,50L50,31.83z"/><path fill="#707cc0" d="M20.5,71.5l-4.091,5.636c-0.529,0.793-0.424,1.849,0.25,2.524l3.681,3.681 c0.674,0.674,1.73,0.779,2.524,0.25L28.5,79.5"/><polygon fill="#707cc0" points="68.17,50 65.696,52.087 47.913,34.304 50,31.83"/><path fill="#707cc0" d="M49.36,55.14c0,1.33-0.52,2.59-1.46,3.53l-5.66,5.66c-0.94,0.94-2.2,1.46-3.53,1.46 c-1.34,0-2.59-0.52-3.54-1.46c-1.95-1.95-1.95-5.12,0-7.07l5.66-5.66c0.94-0.94,2.2-1.46,3.53-1.46c1.34,0,2.6,0.52,3.54,1.46 S49.36,53.8,49.36,55.14z"/><path fill="#d9eeff" d="M40.121,62.207l5.657-5.657c0.781-0.781,0.781-2.047,0-2.828l0,0c-0.781-0.781-2.047-0.781-2.828,0 l-5.657,5.657c-0.781,0.781-0.781,2.047,0,2.828l0,0C38.074,62.988,39.34,62.988,40.121,62.207z"/><path fill="#40396e" d="M21.758,85.424c-0.905,0-1.804-0.348-2.478-1.022l-3.682-3.682c-1.176-1.176-1.359-3.033-0.437-4.416 l2.492-3.738c-0.947-1.576-0.855-3.617,0.333-5.113l30.077-35.576c0.366-2.884,1.441-7.731,3.085-10.595 c-0.473-1.712-0.006-3.58,1.273-4.859c1.272-1.272,3.125-1.741,4.832-1.28C60.471,13.084,64.17,12,68,12c11.028,0,20,8.972,20,20 c0,3.836-1.086,7.539-3.15,10.76c0.445,1.696-0.027,3.539-1.289,4.801c-1.268,1.269-3.124,1.739-4.828,1.282 c-2.866,1.649-7.721,2.727-10.608,3.094l-35.54,30.048c-1.528,1.211-3.574,1.309-5.149,0.362l-3.739,2.492 C23.106,85.231,22.431,85.424,21.758,85.424z M55.944,17.967c-0.517,0-1.024,0.199-1.4,0.576c-0.592,0.591-0.744,1.503-0.38,2.269 c0.231,0.486,0.185,1.059-0.123,1.501c-1.412,2.03-2.682,6.952-3.049,10.349c-0.032,0.298-0.152,0.579-0.346,0.807L20.307,69.354 c-0.444,0.561-0.395,1.417,0.145,1.956l0.115,0.115c0.507,0.505,0.587,1.299,0.189,1.895l-3.099,4.648 c-0.132,0.198-0.105,0.463,0.062,0.631l3.682,3.682c0.168,0.166,0.434,0.194,0.631,0.062l4.648-3.098 c0.594-0.396,1.385-0.319,1.891,0.186l0.118,0.117c0.541,0.539,1.398,0.591,1.995,0.116l35.848-30.309 c0.229-0.193,0.509-0.313,0.807-0.346c3.398-0.368,8.324-1.64,10.355-3.054c0.439-0.305,1.007-0.354,1.491-0.128 c0.762,0.354,1.668,0.2,2.255-0.387s0.742-1.493,0.387-2.255c-0.226-0.484-0.177-1.052,0.128-1.491C83.947,38.832,85,35.48,85,32 c0-9.374-7.626-17-17-17c-3.477,0-6.827,1.051-9.688,3.041c-0.443,0.307-1.016,0.354-1.501,0.123 C56.534,18.031,56.237,17.967,55.944,17.967z"/></svg>