<svg xmlns="http://www.w3.org/2000/svg" xmlns:xlink="http://www.w3.org/1999/xlink" version="1.1" baseProfile="basic" id="Layer_1" x="0px" y="0px" viewBox="0 0 32 32" xml:space="preserve">
<polygon style="fill:#ED6D3E;" points="27,8 27,5 5,5 5,8 3,8 3,27 29,27 29,8 "/>
<rect x="5" y="8" style="fill:#FFFFFF;" width="22" height="1"/>
<path style="fill:#302529;" d="M30,28H2V7h2V4h24v3h2V28z M4,26h24V9h-2V6H6v3H4V26z"/>
<path style="fill:#FFFFFF;" d="M14.5,24c-1.93,0-3.5-1.346-3.5-3s1.57-3,3.5-3s3.5,1.346,3.5,3S16.43,24,14.5,24z M14.5,19  c-1.378,0-2.5,0.897-2.5,2s1.122,2,2.5,2s2.5-0.897,2.5-2S15.878,19,14.5,19z"/>
<polygon style="fill:#FFFFFF;" points="18,21 17,21 17,11.478 22.307,15.605 21.693,16.395 18,13.522 "/>
</svg>