<svg xmlns="http://www.w3.org/2000/svg" viewBox="0 0 48 48" width="48px" height="48px"><path fill="#BBDEFB" d="M9,8c0-2.209,1.791-4,4-4h22c2.209,0,4,1.791,4,4v32c0,2.209-1.791,4-4,4H13c-2.209,0-4-1.791-4-4V8z"/><path fill="#8BC34A" d="M9,8c0-2.209,1.791-4,4-4h22c2.209,0,4,1.791,4,4v32c0,2.209-1.791,4-4,4H13c-2.209,0-4-1.791-4-4V8z"/><path fill="#37474F" d="M24 21A10 10 0 1 0 24 41 10 10 0 1 0 24 21zM24 7A6 6 0 1 0 24 19 6 6 0 1 0 24 7z"/><path fill="#CFD8DC" d="M24 23A8 8 0 1 0 24 39 8 8 0 1 0 24 23zM24 9A4 4 0 1 0 24 17 4 4 0 1 0 24 9z"/><g><path fill="#455A64" d="M24 28A3 3 0 1 0 24 34 3 3 0 1 0 24 28zM24 11A2 2 0 1 0 24 15 2 2 0 1 0 24 11z"/></g><g><path fill="#004D40" d="M36 6A1 1 0 1 0 36 8 1 1 0 1 0 36 6zM12 6A1 1 0 1 0 12 8 1 1 0 1 0 12 6zM36 40A1 1 0 1 0 36 42 1 1 0 1 0 36 40zM12 40A1 1 0 1 0 12 42 1 1 0 1 0 12 40z"/></g></svg>