<svg xmlns="http://www.w3.org/2000/svg" viewBox="0 0 48 48" width="48px" height="48px"><path fill="#ffb74d" d="M36.4 35l-3.5-7.8L29 28l4.4 7H36.4zM11.6 35l3.6-7.8L19 28l-4.4 7H11.6zM24 18c-2.8 0-5-2.2-5-5 0-2.8 2.2-5 5-5s5 2.2 5 5C29 15.7 26.8 18 24 18"/><path fill="#f44336" d="M27,20.5c0,0-1-0.5-3-0.5s-3,0.5-3,0.5c-3.5,1.3-5,4.7-5.9,6.7L19,29v13h10V29l3.8-1.8 C31.9,25.2,30.5,21.8,27,20.5z"/><path fill="#546e7a" d="M32,14c-0.6,0-1-0.4-1-1c0-4-3-7-7-7c-4,0-7,3-7,7c0,0.6-0.4,1-1,1s-1-0.4-1-1c0-5.1,3.9-9,9-9 c5.1,0,9,3.9,9,9C33,13.5,32.6,14,32,14z"/><path fill="#607d8b" d="M42,36c0-1.1-0.9-2-2-2h-8l-2,2H18l-2-2H8c-1.1,0-2,0.9-2,2v5c0,1.1,0.9,2,2,2h32c1.1,0,2-0.9,2-2 V36z"/><path fill="#455a64" d="M6 36h12l-2-2H8C6.9 34 6 34.9 6 36zM40 34h-8l-2 2h12C42 34.9 41.1 34 40 34zM19 14.5c0 .8-.7 1.5-1.5 1.5S16 15.3 16 14.5v-2.1c0-.8.7-1.5 1.5-1.5s1.5.7 1.5 1.5V14.5zM32 14.6c0 .8-.7 1.5-1.5 1.5S29 15.4 29 14.6v-2.1c0-.8.7-1.5 1.5-1.5s1.5.7 1.5 1.5V14.6z"/></svg>