<svg xmlns="http://www.w3.org/2000/svg" viewBox="0 0 48 48" width="48px" height="48px"><path fill="#455a64" d="M24,42c10.5,0,19-8.5,19-19H5C5,33.5,13.5,42,24,42z"/><path fill="#78909c" d="M10.6,36.4c1.1,1.1,2.4,2.1,3.7,2.8L23,24.7c-0.1-0.1-0.3-0.2-0.4-0.3c-0.1-0.1-0.2-0.3-0.3-0.4L7.7,32.8C8.5,34.1,9.4,35.3,10.6,36.4z"/><path fill="#263238" d="M15,23c0,2.3,0.9,4.6,2.6,6.4c3.5,3.5,9.2,3.5,12.7,0c1.8-1.8,2.6-4.1,2.6-6.4H15z"/><path fill="#448aff" d="M40.3,16.5c0-0.2-0.1-0.4-0.4-0.6c-0.3-0.1-0.7-0.3-1.4-0.4c-0.7-0.2-1.3-0.3-1.7-0.6c-0.5-0.2-0.8-0.5-1-0.9s-0.4-0.8-0.4-1.2c0-0.8,0.3-1.5,1-2S37.9,10,39,10c1.2,0,2.2,0.3,2.9,0.8S43,12,43,12.9h-2.8c0-0.7-0.4-1.1-1.1-1.1c-0.3,0-0.5,0.1-0.7,0.2S38,12.4,38,12.6c0,0.2,0.1,0.4,0.4,0.6s0.6,0.3,1.2,0.4c0.5,0.1,1,0.2,1.4,0.3c1.4,0.5,2,1.3,2,2.4c0,0.8-0.4,1.4-1.1,2c-0.7,0.5-1.7,0.8-2.9,0.8c-0.8,0-1.5-0.1-2.1-0.4s-1.1-0.6-1.4-1.1s-0.5-1-0.5-1.5h2.6c0,0.4,0.2,0.7,0.4,0.9c0.3,0.2,0.6,0.3,1,0.3s0.7-0.1,0.9-0.2C40.2,16.9,40.3,16.7,40.3,16.5z M34,13.7c0,1.7-0.4,3-1.2,4C32,18.5,30.9,19,29.5,19s-2.5-0.5-3.3-1.4S25,15.4,25,13.7v-2.3c0-1.7,0.4-3,1.2-4C27,6.5,28.1,6,29.5,6s2.5,0.5,3.3,1.4s1.2,2.3,1.2,4V13.7z M31,11c0-0.9-0.1-1.6-0.4-2c-0.2-0.4-0.6-0.7-1.2-0.7c-0.5,0-0.9,0.2-1.1,0.6c-0.2,0.4-0.4,1-0.4,1.9V14c0,0.9,0.1,1.6,0.4,2.1c0.2,0.4,0.6,0.7,1.2,0.7c0.5,0,0.9-0.2,1.1-0.6s0.4-1.1,0.4-2V11z M16.9,19v-2.3H17c1.1,0,2-0.3,2.7-0.8c0.7-0.5,1.1-1.3,1.3-2.2c-0.7,0.6-1.5,1-2.5,1c-1.1,0-1.9-0.4-2.6-1.2s-1-1.8-1-3.1c0-0.8,0.2-1.5,0.6-2.2c0.4-0.7,0.9-1.2,1.6-1.6C17.8,6.2,18.6,6,19.4,6c0.9,0,1.7,0.2,2.4,0.6c0.7,0.4,1.2,1,1.6,1.7C23.8,9.1,24,10,24,11v1.2c0,1.3-0.3,2.5-0.8,3.5c-0.6,1-1.3,1.9-2.4,2.4c-1,0.6-2.2,0.9-3.4,0.9H16.9z M19.6,12.4c0.4,0,0.7-0.1,1-0.3s0.4-0.4,0.6-0.7v-0.9c0-1.6-0.5-2.4-1.6-2.4c-0.4,0-0.8,0.2-1.1,0.6c-0.3,0.4-0.4,0.9-0.4,1.5s0.2,1.1,0.5,1.5C18.7,12.2,19.1,12.4,19.6,12.4z M26,23c0,0.5-0.2,1-0.6,1.4c-0.8,0.8-2,0.8-2.8,0C22.2,24,22,23.5,22,23h-5c0,1.8,0.7,3.6,2.1,4.9c2.7,2.7,7.2,2.7,9.9,0c1.4-1.4,2-3.2,2.1-4.9H26z"/></svg>